{
    "asset" : {
        "generator" : "Khronos glTF Blender I/O v1.2.75",
        "version" : "2.0"
    },
    "extensionsUsed" : [
        "KHR_texture_transform"
    ],
    "extensionsRequired" : [
        "KHR_texture_transform"
    ],
    "scene" : 0,
    "scenes" : [
        {
            "name" : "Scene",
            "nodes" : [
                0,
                1,
                2
            ]
        }
    ],
    "nodes" : [
        {
            "mesh" : 0,
            "name" : "body",
            "scale" : [
                0.009999999776482582,
                0.009999999776482582,
                0.009999999776482582
            ]
        },
        {
            "mesh" : 1,
            "name" : "hat",
            "scale" : [
                0.009999999776482582,
                0.009999999776482582,
                0.009999999776482582
            ],
            "translation" : [
                0,
                0,
                0.8078629970550537
            ]
        },
        {
            "mesh" : 2,
            "name" : "flower",
            "scale" : [
                0.009999999776482582,
                0.009999999776482582,
                0.009999999776482582
            ],
            "translation" : [
                0,
                0,
                0.7407532334327698
            ]
        }
    ],
    "materials" : [
        {
            "doubleSided" : true,
            "emissiveFactor" : [
                0,
                0,
                0
            ],
            "name" : "19 - Default",
            "pbrMetallicRoughness" : {
                "baseColorTexture" : {
                    "extensions" : {
                        "KHR_texture_transform" : {
                            "offset" : [
                                0,
                                -1
                            ]
                        }
                    },
                    "index" : 0,
                    "texCoord" : 0
                },
                "metallicFactor" : 0,
                "roughnessFactor" : 0.5527864098548889
            }
        },
        {
            "doubleSided" : true,
            "emissiveFactor" : [
                0,
                0,
                0
            ],
            "name" : "Mat",
            "pbrMetallicRoughness" : {
                "baseColorFactor" : [
                    0.9300000071525574,
                    0.6974999904632568,
                    0,
                    1
                ],
                "metallicFactor" : 0,
                "roughnessFactor" : 0.5527864098548889
            }
        },
        {
            "doubleSided" : true,
            "emissiveFactor" : [
                0,
                0,
                0
            ],
            "name" : "Mat_1",
            "pbrMetallicRoughness" : {
                "baseColorFactor" : [
                    0.9300000071525574,
                    0.13950000703334808,
                    0,
                    1
                ],
                "metallicFactor" : 0,
                "roughnessFactor" : 0.5527864098548889
            }
        }
    ],
    "meshes" : [
        {
            "name" : "Mesh",
            "primitives" : [
                {
                    "attributes" : {
                        "POSITION" : 0,
                        "NORMAL" : 1,
                        "TEXCOORD_0" : 2
                    },
                    "indices" : 3,
                    "material" : 0
                }
            ]
        },
        {
            "name" : "Mesh.001",
            "primitives" : [
                {
                    "attributes" : {
                        "POSITION" : 4,
                        "NORMAL" : 5,
                        "TEXCOORD_0" : 6
                    },
                    "indices" : 7,
                    "material" : 1
                }
            ]
        },
        {
            "name" : "Mesh.002",
            "primitives" : [
                {
                    "attributes" : {
                        "POSITION" : 8,
                        "NORMAL" : 9,
                        "TEXCOORD_0" : 10
                    },
                    "indices" : 11,
                    "material" : 2
                }
            ]
        }
    ],
    "textures" : [
        {
            "source" : 0
        }
    ],
    "images" : [
        {
            "mimeType" : "image/png",
            "name" : "girl_tex",
            "uri" : "girl_tex.png"
        }
    ],
    "accessors" : [
        {
            "bufferView" : 0,
            "componentType" : 5126,
            "count" : 2109,
            "max" : [
                217.61729431152344,
                581.318359375,
                132.827392578125
            ],
            "min" : [
                -217.61729431152344,
                0,
                -108.31615447998047
            ],
            "type" : "VEC3"
        },
        {
            "bufferView" : 1,
            "componentType" : 5126,
            "count" : 2109,
            "type" : "VEC3"
        },
        {
            "bufferView" : 2,
            "componentType" : 5126,
            "count" : 2109,
            "type" : "VEC2"
        },
        {
            "bufferView" : 3,
            "componentType" : 5123,
            "count" : 8262,
            "type" : "SCALAR"
        },
        {
            "bufferView" : 4,
            "componentType" : 5126,
            "count" : 117,
            "max" : [
                181.1106719970703,
                654.7144775390625,
                86.67431640625
            ],
            "min" : [
                -181.1106719970703,
                381.95733642578125,
                -263.5697326660156
            ],
            "type" : "VEC3"
        },
        {
            "bufferView" : 5,
            "componentType" : 5126,
            "count" : 117,
            "type" : "VEC3"
        },
        {
            "bufferView" : 6,
            "componentType" : 5126,
            "count" : 117,
            "type" : "VEC2"
        },
        {
            "bufferView" : 7,
            "componentType" : 5123,
            "count" : 498,
            "type" : "SCALAR"
        },
        {
            "bufferView" : 8,
            "componentType" : 5126,
            "count" : 84,
            "max" : [
                202.0411834716797,
                575.6682739257812,
                -40.753379821777344
            ],
            "min" : [
                83.84722900390625,
                471.7789611816406,
                -149.91419982910156
            ],
            "type" : "VEC3"
        },
        {
            "bufferView" : 9,
            "componentType" : 5126,
            "count" : 84,
            "type" : "VEC3"
        },
        {
            "bufferView" : 10,
            "componentType" : 5126,
            "count" : 84,
            "type" : "VEC2"
        },
        {
            "bufferView" : 11,
            "componentType" : 5123,
            "count" : 213,
            "type" : "SCALAR"
        }
    ],
    "bufferViews" : [
        {
            "buffer" : 0,
            "byteLength" : 25308,
            "byteOffset" : 0
        },
        {
            "buffer" : 0,
            "byteLength" : 25308,
            "byteOffset" : 25308
        },
        {
            "buffer" : 0,
            "byteLength" : 16872,
            "byteOffset" : 50616
        },
        {
            "buffer" : 0,
            "byteLength" : 16524,
            "byteOffset" : 67488
        },
        {
            "buffer" : 0,
            "byteLength" : 1404,
            "byteOffset" : 84012
        },
        {
            "buffer" : 0,
            "byteLength" : 1404,
            "byteOffset" : 85416
        },
        {
            "buffer" : 0,
            "byteLength" : 936,
            "byteOffset" : 86820
        },
        {
            "buffer" : 0,
            "byteLength" : 996,
            "byteOffset" : 87756
        },
        {
            "buffer" : 0,
            "byteLength" : 1008,
            "byteOffset" : 88752
        },
        {
            "buffer" : 0,
            "byteLength" : 1008,
            "byteOffset" : 89760
        },
        {
            "buffer" : 0,
            "byteLength" : 672,
            "byteOffset" : 90768
        },
        {
            "buffer" : 0,
            "byteLength" : 426,
            "byteOffset" : 91440
        }
    ],
    "buffers" : [
        {
            "byteLength" : 91868,
            "uri" : "girl4.glb.bin"
        }
    ]
}
