{
    "asset" : {
        "generator" : "Khronos glTF Blender I/O v1.2.75",
        "version" : "2.0"
    },
    "scene" : 0,
    "scenes" : [
        {
            "name" : "Scene",
            "nodes" : [
                0,
                1,
                2,
                3,
                4,
                5,
                6,
                7
            ]
        }
    ],
    "nodes" : [
        {
            "mesh" : 0,
            "name" : "nike_logo",
            "scale" : [
                0.07512760162353516,
                0.07512760162353516,
                0.07512760162353516
            ],
            "translation" : [
                -0.03198830410838127,
                -0.0043071177788078785,
                -0.016861962154507637
            ]
        },
        {
            "mesh" : 1,
            "name" : "nike_botton_2",
            "scale" : [
                0.07512760162353516,
                0.07512760162353516,
                0.07512760162353516
            ],
            "translation" : [
                -0.03390228748321533,
                3.4684198908507824e-06,
                0.0065070828422904015
            ]
        },
        {
            "mesh" : 2,
            "name" : "nike_botton_1",
            "rotation" : [
                -0.007637471426278353,
                -0.9742609858512878,
                0.03339655324816704,
                0.22280460596084595
            ],
            "scale" : [
                0.07512760907411575,
                0.07512760907411575,
                0.07512760907411575
            ],
            "translation" : [
                0.26512518525123596,
                0.030157744884490967,
                0.11537737399339676
            ]
        },
        {
            "mesh" : 3,
            "name" : "shoelace_up",
            "rotation" : [
                -0.7071068286895752,
                0,
                0,
                0.7071067094802856
            ],
            "scale" : [
                0.07512744516134262,
                0.07512744516134262,
                0.07512744516134262
            ],
            "translation" : [
                -0.03198830410838127,
                -0.0043071177788078785,
                -0.016861962154507637
            ]
        },
        {
            "mesh" : 4,
            "name" : "nike_ar",
            "scale" : [
                0.07512760162353516,
                0.07512760162353516,
                0.07512760162353516
            ],
            "translation" : [
                -0.03198830410838127,
                -0.003335007932037115,
                -0.016861962154507637
            ]
        },
        {
            "mesh" : 5,
            "name" : "nike_tag_1",
            "rotation" : [
                0.7071068286895752,
                0,
                0,
                0.7071067094802856
            ],
            "scale" : [
                0.07512760162353516,
                0.07512760162353516,
                0.07512760162353516
            ],
            "translation" : [
                -0.03198830410838127,
                -0.004307097755372524,
                -0.016862016171216965
            ]
        },
        {
            "mesh" : 6,
            "name" : "nike_tag_2",
            "rotation" : [
                0.7071068286895752,
                0,
                0,
                0.7071067094802856
            ],
            "scale" : [
                0.07512760162353516,
                0.07512760162353516,
                0.07512760162353516
            ],
            "translation" : [
                -0.03198830410838127,
                -0.0043070949614048,
                -0.016862016171216965
            ]
        },
        {
            "mesh" : 7,
            "name" : "nike_tag_3",
            "rotation" : [
                0.7071068286895752,
                0,
                0,
                0.7071067094802856
            ],
            "scale" : [
                0.07512760162353516,
                0.07512760162353516,
                0.07512760162353516
            ],
            "translation" : [
                -0.03198830410838127,
                -0.004307098221033812,
                -0.016862014308571815
            ]
        }
    ],
    "materials" : [
        {
            "doubleSided" : true,
            "emissiveFactor" : [
                0,
                0,
                0
            ],
            "name" : "nike_logo",
            "normalTexture" : {
                "index" : 0,
                "texCoord" : 0
            },
            "pbrMetallicRoughness" : {
                "baseColorTexture" : {
                    "index" : 1,
                    "texCoord" : 0
                },
                "metallicFactor" : 0,
                "roughnessFactor" : 0.5527864098548889
            }
        },
        {
            "doubleSided" : true,
            "emissiveFactor" : [
                0,
                0,
                0
            ],
            "name" : "nike_botton_2",
            "normalTexture" : {
                "index" : 2,
                "texCoord" : 0
            },
            "pbrMetallicRoughness" : {
                "baseColorTexture" : {
                    "index" : 3,
                    "texCoord" : 0
                },
                "metallicFactor" : 0,
                "roughnessFactor" : 0.5527864098548889
            }
        },
        {
            "doubleSided" : true,
            "emissiveFactor" : [
                0,
                0,
                0
            ],
            "name" : "nike_botton_1",
            "normalTexture" : {
                "index" : 4,
                "texCoord" : 0
            },
            "pbrMetallicRoughness" : {
                "baseColorTexture" : {
                    "index" : 5,
                    "texCoord" : 0
                },
                "metallicFactor" : 0,
                "roughnessFactor" : 0.5527864098548889
            }
        },
        {
            "doubleSided" : true,
            "emissiveFactor" : [
                0,
                0,
                0
            ],
            "name" : "shoelace_up",
            "normalTexture" : {
                "index" : 6,
                "texCoord" : 0
            },
            "pbrMetallicRoughness" : {
                "baseColorTexture" : {
                    "index" : 7,
                    "texCoord" : 0
                },
                "metallicFactor" : 0,
                "roughnessFactor" : 0.5527864098548889
            }
        },
        {
            "doubleSided" : true,
            "emissiveFactor" : [
                0,
                0,
                0
            ],
            "name" : "nike_shoe",
            "normalTexture" : {
                "index" : 8,
                "texCoord" : 0
            },
            "pbrMetallicRoughness" : {
                "baseColorTexture" : {
                    "index" : 9,
                    "texCoord" : 0
                },
                "metallicFactor" : 0,
                "roughnessFactor" : 0.5527864098548889
            }
        },
        {
            "doubleSided" : true,
            "emissiveFactor" : [
                0,
                0,
                0
            ],
            "name" : "nike_tag_1",
            "normalTexture" : {
                "index" : 10,
                "texCoord" : 0
            },
            "pbrMetallicRoughness" : {
                "baseColorTexture" : {
                    "index" : 11,
                    "texCoord" : 0
                },
                "metallicFactor" : 0,
                "roughnessFactor" : 0.5527864098548889
            }
        },
        {
            "doubleSided" : true,
            "emissiveFactor" : [
                0,
                0,
                0
            ],
            "name" : "nike_tag_2",
            "normalTexture" : {
                "index" : 12,
                "texCoord" : 0
            },
            "pbrMetallicRoughness" : {
                "baseColorTexture" : {
                    "index" : 13,
                    "texCoord" : 0
                },
                "metallicFactor" : 0,
                "roughnessFactor" : 0.5527864098548889
            }
        },
        {
            "doubleSided" : true,
            "emissiveFactor" : [
                0,
                0,
                0
            ],
            "name" : "nike_tag_3",
            "normalTexture" : {
                "index" : 14,
                "texCoord" : 0
            },
            "pbrMetallicRoughness" : {
                "baseColorTexture" : {
                    "index" : 15,
                    "texCoord" : 0
                },
                "metallicFactor" : 0,
                "roughnessFactor" : 0.5527864098548889
            }
        }
    ],
    "meshes" : [
        {
            "name" : "Mesh",
            "primitives" : [
                {
                    "attributes" : {
                        "POSITION" : 0,
                        "NORMAL" : 1,
                        "TEXCOORD_0" : 2
                    },
                    "indices" : 3,
                    "material" : 0
                }
            ]
        },
        {
            "name" : "Mesh.001",
            "primitives" : [
                {
                    "attributes" : {
                        "POSITION" : 4,
                        "NORMAL" : 5,
                        "TEXCOORD_0" : 6
                    },
                    "indices" : 7,
                    "material" : 1
                }
            ]
        },
        {
            "name" : "Mesh.002",
            "primitives" : [
                {
                    "attributes" : {
                        "POSITION" : 8,
                        "NORMAL" : 9,
                        "TEXCOORD_0" : 10
                    },
                    "indices" : 7,
                    "material" : 2
                }
            ]
        },
        {
            "name" : "Mesh.003",
            "primitives" : [
                {
                    "attributes" : {
                        "POSITION" : 11,
                        "NORMAL" : 12,
                        "TEXCOORD_0" : 13
                    },
                    "indices" : 14,
                    "material" : 3
                }
            ]
        },
        {
            "name" : "Mesh.004",
            "primitives" : [
                {
                    "attributes" : {
                        "POSITION" : 15,
                        "NORMAL" : 16,
                        "TEXCOORD_0" : 17
                    },
                    "indices" : 18,
                    "material" : 4
                }
            ]
        },
        {
            "name" : "Mesh.005",
            "primitives" : [
                {
                    "attributes" : {
                        "POSITION" : 19,
                        "NORMAL" : 20,
                        "TEXCOORD_0" : 21
                    },
                    "indices" : 22,
                    "material" : 5
                }
            ]
        },
        {
            "name" : "Mesh.006",
            "primitives" : [
                {
                    "attributes" : {
                        "POSITION" : 23,
                        "NORMAL" : 24,
                        "TEXCOORD_0" : 25
                    },
                    "indices" : 26,
                    "material" : 6
                }
            ]
        },
        {
            "name" : "Mesh.007",
            "primitives" : [
                {
                    "attributes" : {
                        "POSITION" : 27,
                        "NORMAL" : 28,
                        "TEXCOORD_0" : 29
                    },
                    "indices" : 26,
                    "material" : 7
                }
            ]
        }
    ],
    "textures" : [
        {
            "source" : 0
        },
        {
            "source" : 1
        },
        {
            "source" : 2
        },
        {
            "source" : 3
        },
        {
            "source" : 2
        },
        {
            "source" : 4
        },
        {
            "source" : 5
        },
        {
            "source" : 6
        },
        {
            "source" : 7
        },
        {
            "source" : 8
        },
        {
            "source" : 9
        },
        {
            "source" : 10
        },
        {
            "source" : 9
        },
        {
            "source" : 11
        },
        {
            "source" : 9
        },
        {
            "source" : 12
        }
    ],
    "images" : [
        {
            "mimeType" : "image/png",
            "name" : "logo_N",
            "uri" : "logo_N.png"
        },
        {
            "mimeType" : "image/png",
            "name" : "logo_BC",
            "uri" : "logo_BC.png"
        },
        {
            "mimeType" : "image/png",
            "name" : "badge_N",
            "uri" : "badge_N.png"
        },
        {
            "mimeType" : "image/png",
            "name" : "badge_b_bc",
            "uri" : "badge_b_bc.png"
        },
        {
            "mimeType" : "image/png",
            "name" : "badge_a_bc",
            "uri" : "badge_a_bc.png"
        },
        {
            "mimeType" : "image/png",
            "name" : "shoelace_N",
            "uri" : "shoelace_N.png"
        },
        {
            "mimeType" : "image/png",
            "name" : "shoelace_BK_BC",
            "uri" : "shoelace_BK_BC.png"
        },
        {
            "mimeType" : "image/png",
            "name" : "nike_AR_nike_N",
            "uri" : "nike_AR_nike_N.png"
        },
        {
            "mimeType" : "image/png",
            "name" : "nike_AR_WH_BC",
            "uri" : "nike_AR_WH_BC.png"
        },
        {
            "mimeType" : "image/png",
            "name" : "tag_N",
            "uri" : "tag_N.png"
        },
        {
            "mimeType" : "image/png",
            "name" : "tag_a_BC",
            "uri" : "tag_a_BC.png"
        },
        {
            "mimeType" : "image/png",
            "name" : "tag_b_BC",
            "uri" : "tag_b_BC.png"
        },
        {
            "mimeType" : "image/png",
            "name" : "tag_c_BC",
            "uri" : "tag_c_BC.png"
        }
    ],
    "accessors" : [
        {
            "bufferView" : 0,
            "componentType" : 5126,
            "count" : 175,
            "max" : [
                14.618217468261719,
                19.466697692871094,
                6.451009273529053
            ],
            "min" : [
                -3.4711685180664062,
                14.359343528747559,
                -4.583260536193848
            ],
            "type" : "VEC3"
        },
        {
            "bufferView" : 1,
            "componentType" : 5126,
            "count" : 175,
            "type" : "VEC3"
        },
        {
            "bufferView" : 2,
            "componentType" : 5126,
            "count" : 175,
            "type" : "VEC2"
        },
        {
            "bufferView" : 3,
            "componentType" : 5123,
            "count" : 768,
            "type" : "SCALAR"
        },
        {
            "bufferView" : 4,
            "componentType" : 5126,
            "count" : 38,
            "max" : [
                2.429311752319336,
                22.90631103515625,
                4.674286365509033
            ],
            "min" : [
                0.4225947856903076,
                20.94377899169922,
                3.420109272003174
            ],
            "type" : "VEC3"
        },
        {
            "bufferView" : 5,
            "componentType" : 5126,
            "count" : 38,
            "type" : "VEC3"
        },
        {
            "bufferView" : 6,
            "componentType" : 5126,
            "count" : 38,
            "type" : "VEC2"
        },
        {
            "bufferView" : 7,
            "componentType" : 5123,
            "count" : 144,
            "type" : "SCALAR"
        },
        {
            "bufferView" : 8,
            "componentType" : 5126,
            "count" : 38,
            "max" : [
                2.429311752319336,
                22.90631103515625,
                4.674286365509033
            ],
            "min" : [
                0.4225947856903076,
                20.94377899169922,
                3.420109272003174
            ],
            "type" : "VEC3"
        },
        {
            "bufferView" : 9,
            "componentType" : 5126,
            "count" : 38,
            "type" : "VEC3"
        },
        {
            "bufferView" : 10,
            "componentType" : 5126,
            "count" : 38,
            "type" : "VEC2"
        },
        {
            "bufferView" : 11,
            "componentType" : 5126,
            "count" : 571,
            "max" : [
                1.0873568058013916,
                6.448697566986084,
                24.69698143005371
            ],
            "min" : [
                -11.127620697021484,
                -7.673178672790527,
                16.049272537231445
            ],
            "type" : "VEC3"
        },
        {
            "bufferView" : 12,
            "componentType" : 5126,
            "count" : 571,
            "type" : "VEC3"
        },
        {
            "bufferView" : 13,
            "componentType" : 5126,
            "count" : 571,
            "type" : "VEC2"
        },
        {
            "bufferView" : 14,
            "componentType" : 5123,
            "count" : 2589,
            "type" : "SCALAR"
        },
        {
            "bufferView" : 15,
            "componentType" : 5126,
            "count" : 1273,
            "max" : [
                16.628923416137695,
                24.913314819335938,
                8.168107986450195
            ],
            "min" : [
                -21.71285629272461,
                6.738105773925781,
                -5.349143981933594
            ],
            "type" : "VEC3"
        },
        {
            "bufferView" : 16,
            "componentType" : 5126,
            "count" : 1273,
            "type" : "VEC3"
        },
        {
            "bufferView" : 17,
            "componentType" : 5126,
            "count" : 1273,
            "type" : "VEC2"
        },
        {
            "bufferView" : 18,
            "componentType" : 5123,
            "count" : 6084,
            "type" : "SCALAR"
        },
        {
            "bufferView" : 19,
            "componentType" : 5126,
            "count" : 282,
            "max" : [
                10.687253952026367,
                9.678803443908691,
                -9.223687171936035
            ],
            "min" : [
                0.1856377124786377,
                2.622951030731201,
                -23.28529930114746
            ],
            "type" : "VEC3"
        },
        {
            "bufferView" : 20,
            "componentType" : 5126,
            "count" : 282,
            "type" : "VEC3"
        },
        {
            "bufferView" : 21,
            "componentType" : 5126,
            "count" : 282,
            "type" : "VEC2"
        },
        {
            "bufferView" : 22,
            "componentType" : 5123,
            "count" : 1086,
            "type" : "SCALAR"
        },
        {
            "bufferView" : 23,
            "componentType" : 5126,
            "count" : 268,
            "max" : [
                8.749584197998047,
                11.643864631652832,
                -9.983543395996094
            ],
            "min" : [
                0.1745145320892334,
                2.560896873474121,
                -23.176515579223633
            ],
            "type" : "VEC3"
        },
        {
            "bufferView" : 24,
            "componentType" : 5126,
            "count" : 268,
            "type" : "VEC3"
        },
        {
            "bufferView" : 25,
            "componentType" : 5126,
            "count" : 268,
            "type" : "VEC2"
        },
        {
            "bufferView" : 26,
            "componentType" : 5123,
            "count" : 1086,
            "type" : "SCALAR"
        },
        {
            "bufferView" : 27,
            "componentType" : 5126,
            "count" : 268,
            "max" : [
                10.132140159606934,
                9.237452507019043,
                -8.637394905090332
            ],
            "min" : [
                0.2607407569885254,
                2.6210548877716064,
                -23.374149322509766
            ],
            "type" : "VEC3"
        },
        {
            "bufferView" : 28,
            "componentType" : 5126,
            "count" : 268,
            "type" : "VEC3"
        },
        {
            "bufferView" : 29,
            "componentType" : 5126,
            "count" : 268,
            "type" : "VEC2"
        }
    ],
    "bufferViews" : [
        {
            "buffer" : 0,
            "byteLength" : 2100,
            "byteOffset" : 0
        },
        {
            "buffer" : 0,
            "byteLength" : 2100,
            "byteOffset" : 2100
        },
        {
            "buffer" : 0,
            "byteLength" : 1400,
            "byteOffset" : 4200
        },
        {
            "buffer" : 0,
            "byteLength" : 1536,
            "byteOffset" : 5600
        },
        {
            "buffer" : 0,
            "byteLength" : 456,
            "byteOffset" : 7136
        },
        {
            "buffer" : 0,
            "byteLength" : 456,
            "byteOffset" : 7592
        },
        {
            "buffer" : 0,
            "byteLength" : 304,
            "byteOffset" : 8048
        },
        {
            "buffer" : 0,
            "byteLength" : 288,
            "byteOffset" : 8352
        },
        {
            "buffer" : 0,
            "byteLength" : 456,
            "byteOffset" : 8640
        },
        {
            "buffer" : 0,
            "byteLength" : 456,
            "byteOffset" : 9096
        },
        {
            "buffer" : 0,
            "byteLength" : 304,
            "byteOffset" : 9552
        },
        {
            "buffer" : 0,
            "byteLength" : 6852,
            "byteOffset" : 9856
        },
        {
            "buffer" : 0,
            "byteLength" : 6852,
            "byteOffset" : 16708
        },
        {
            "buffer" : 0,
            "byteLength" : 4568,
            "byteOffset" : 23560
        },
        {
            "buffer" : 0,
            "byteLength" : 5178,
            "byteOffset" : 28128
        },
        {
            "buffer" : 0,
            "byteLength" : 15276,
            "byteOffset" : 33308
        },
        {
            "buffer" : 0,
            "byteLength" : 15276,
            "byteOffset" : 48584
        },
        {
            "buffer" : 0,
            "byteLength" : 10184,
            "byteOffset" : 63860
        },
        {
            "buffer" : 0,
            "byteLength" : 12168,
            "byteOffset" : 74044
        },
        {
            "buffer" : 0,
            "byteLength" : 3384,
            "byteOffset" : 86212
        },
        {
            "buffer" : 0,
            "byteLength" : 3384,
            "byteOffset" : 89596
        },
        {
            "buffer" : 0,
            "byteLength" : 2256,
            "byteOffset" : 92980
        },
        {
            "buffer" : 0,
            "byteLength" : 2172,
            "byteOffset" : 95236
        },
        {
            "buffer" : 0,
            "byteLength" : 3216,
            "byteOffset" : 97408
        },
        {
            "buffer" : 0,
            "byteLength" : 3216,
            "byteOffset" : 100624
        },
        {
            "buffer" : 0,
            "byteLength" : 2144,
            "byteOffset" : 103840
        },
        {
            "buffer" : 0,
            "byteLength" : 2172,
            "byteOffset" : 105984
        },
        {
            "buffer" : 0,
            "byteLength" : 3216,
            "byteOffset" : 108156
        },
        {
            "buffer" : 0,
            "byteLength" : 3216,
            "byteOffset" : 111372
        },
        {
            "buffer" : 0,
            "byteLength" : 2144,
            "byteOffset" : 114588
        }
    ],
    "buffers" : [
        {
            "byteLength" : 116732,
            "uri" : "nikeTest.bin"
        }
    ]
}
